<svg xmlns="http://www.w3.org/2000/svg" viewBox="0 0 500 500"><g id="freepik--background-complete--inject-46"><rect y="382.4" width="500" height="0.25" style="fill:#ebebeb"></rect><rect x="416.78" y="398.49" width="33.12" height="0.25" style="fill:#ebebeb"></rect><rect x="322.53" y="401.21" width="8.69" height="0.25" style="fill:#ebebeb"></rect><rect x="396.59" y="389.21" width="19.19" height="0.25" style="fill:#ebebeb"></rect><rect x="52.46" y="390.89" width="43.19" height="0.25" style="fill:#ebebeb"></rect><rect x="104.56" y="390.89" width="6.33" height="0.25" style="fill:#ebebeb"></rect><rect x="131.47" y="395.11" width="93.68" height="0.25" style="fill:#ebebeb"></rect><path d="M237,337.8H43.91a5.71,5.71,0,0,1-5.7-5.71V60.66A5.71,5.71,0,0,1,43.91,55H237a5.71,5.71,0,0,1,5.71,5.71V332.09A5.71,5.71,0,0,1,237,337.8ZM43.91,55.2a5.46,5.46,0,0,0-5.45,5.46V332.09a5.46,5.46,0,0,0,5.45,5.46H237a5.47,5.47,0,0,0,5.46-5.46V60.66A5.47,5.47,0,0,0,237,55.2Z" style="fill:#ebebeb"></path><path d="M453.31,337.8H260.21a5.72,5.72,0,0,1-5.71-5.71V60.66A5.72,5.72,0,0,1,260.21,55h193.1A5.71,5.71,0,0,1,459,60.66V332.09A5.71,5.71,0,0,1,453.31,337.8ZM260.21,55.2a5.47,5.47,0,0,0-5.46,5.46V332.09a5.47,5.47,0,0,0,5.46,5.46h193.1a5.47,5.47,0,0,0,5.46-5.46V60.66a5.47,5.47,0,0,0-5.46-5.46Z" style="fill:#ebebeb"></path><rect x="89.52" y="162.2" width="150.21" height="220.23" style="fill:#f0f0f0"></rect><rect x="94.83" y="169.13" width="139.59" height="40.67" style="fill:#e0e0e0"></rect><rect x="94.83" y="175.72" width="7.93" height="34.09" style="fill:#ebebeb"></rect><rect x="133.17" y="175.72" width="7.93" height="34.09" style="fill:#ebebeb"></rect><rect x="179.65" y="175.29" width="7.93" height="34.09" transform="translate(-30 33.98) rotate(-9.78)" style="fill:#ebebeb"></rect><rect x="104.66" y="180.21" width="7.93" height="29.6" style="fill:#ebebeb"></rect><rect x="122.88" y="180.21" width="7.93" height="29.6" style="fill:#ebebeb"></rect><rect x="168.89" y="180.21" width="7.93" height="29.6" style="fill:#ebebeb"></rect><rect x="146.89" y="179.7" width="7.93" height="29.6" transform="translate(-38.6 37.35) rotate(-12.53)" style="fill:#ebebeb"></rect><rect x="115.48" y="174.02" width="3.96" height="35.78" style="fill:#ebebeb"></rect><rect x="162.64" y="174.02" width="3.96" height="35.78" style="fill:#ebebeb"></rect><rect x="94.83" y="216.24" width="139.59" height="40.67" transform="translate(329.25 473.16) rotate(180)" style="fill:#e0e0e0"></rect><rect x="226.49" y="222.83" width="7.93" height="34.09" transform="translate(460.91 479.75) rotate(180)" style="fill:#ebebeb"></rect><rect x="188.15" y="222.83" width="7.93" height="34.09" transform="translate(384.23 479.75) rotate(180)" style="fill:#ebebeb"></rect><rect x="141.67" y="222.4" width="7.93" height="34.09" transform="translate(248.48 500.15) rotate(-170.22)" style="fill:#ebebeb"></rect><rect x="216.67" y="227.32" width="7.93" height="29.6" transform="translate(441.26 484.24) rotate(180)" style="fill:#ebebeb"></rect><rect x="198.44" y="227.32" width="7.93" height="29.6" transform="translate(404.81 484.24) rotate(180)" style="fill:#ebebeb"></rect><rect x="152.43" y="227.32" width="7.93" height="29.6" transform="translate(312.8 484.24) rotate(180)" style="fill:#ebebeb"></rect><rect x="174.43" y="226.81" width="7.93" height="29.6" transform="translate(300.14 516.17) rotate(-167.47)" style="fill:#ebebeb"></rect><rect x="209.81" y="221.14" width="3.96" height="35.78" transform="translate(423.58 478.06) rotate(180)" style="fill:#ebebeb"></rect><rect x="162.64" y="221.14" width="3.96" height="35.78" transform="translate(329.25 478.06) rotate(180)" style="fill:#ebebeb"></rect><rect x="94.83" y="222.83" width="7.93" height="34.09" style="fill:#ebebeb"></rect><rect x="104.66" y="227.32" width="7.93" height="29.6" style="fill:#ebebeb"></rect><rect x="122.88" y="227.32" width="7.93" height="29.6" style="fill:#ebebeb"></rect><rect x="115.48" y="221.14" width="3.96" height="35.78" style="fill:#ebebeb"></rect><rect x="94.83" y="263.36" width="139.59" height="40.67" style="fill:#e0e0e0"></rect><rect x="174.95" y="269.94" width="7.93" height="34.09" style="fill:#ebebeb"></rect><rect x="221.43" y="269.52" width="7.93" height="34.09" transform="translate(-45.4 42.45) rotate(-9.78)" style="fill:#ebebeb"></rect><rect x="146.43" y="274.44" width="7.93" height="29.6" style="fill:#ebebeb"></rect><rect x="164.66" y="274.44" width="7.93" height="29.6" style="fill:#ebebeb"></rect><rect x="210.66" y="274.44" width="7.93" height="29.6" style="fill:#ebebeb"></rect><rect x="188.67" y="273.93" width="7.93" height="29.6" transform="translate(-58.04 48.66) rotate(-12.53)" style="fill:#ebebeb"></rect><rect x="157.26" y="268.25" width="3.96" height="35.78" style="fill:#ebebeb"></rect><rect x="204.42" y="268.25" width="3.96" height="35.78" style="fill:#ebebeb"></rect><rect x="130.2" y="269.52" width="7.93" height="34.09" transform="translate(-46.72 26.95) rotate(-9.78)" style="fill:#ebebeb"></rect><rect x="119.44" y="274.44" width="7.93" height="29.6" style="fill:#ebebeb"></rect><rect x="97.44" y="273.93" width="7.93" height="29.6" transform="translate(-60.21 28.87) rotate(-12.53)" style="fill:#ebebeb"></rect><rect x="113.19" y="268.25" width="3.96" height="35.78" style="fill:#ebebeb"></rect><rect x="63.61" y="162.2" width="25.91" height="220.8" transform="translate(153.13 545.2) rotate(180)" style="fill:#e0e0e0"></rect><rect x="269.77" y="98.53" width="163.56" height="6.51" rx="2.12" style="fill:#e0e0e0"></rect><rect x="279.49" y="103.71" width="144.13" height="127.9" style="fill:#e6e6e6"></rect><rect x="283.1" y="107.21" width="136.73" height="120.95" style="fill:#f0f0f0"></rect><polygon points="315.19 107.21 283.1 227.9 283.1 171.19 300.04 107.21 315.19 107.21" style="fill:#fff"></polygon><polygon points="326.55 107.21 294.18 228.16 289.01 228.16 321.38 107.21 326.55 107.21" style="fill:#fff"></polygon><polygon points="419.83 183.53 419.83 202.86 413.28 228.16 408.11 228.16 419.83 183.53" style="fill:#fff"></polygon><rect x="328.48" y="105.04" width="2.3" height="125.83" style="fill:#e6e6e6"></rect><rect x="373.12" y="105.04" width="2.3" height="125.83" style="fill:#e6e6e6"></rect><path d="M400.13,100.61s3.31,43.27,22.39,65.32c0,0-13.89,55.69-13.88,75.1l25.81-4.76-9.31-70,4.45-65.64Z" style="fill:#e0e0e0"></path><path d="M303,100.61s-3.32,43.27-22.39,65.32c0,0,13.89,55.69,13.88,75.1l-25.81-4.76,9.3-70-4.45-65.64Z" style="fill:#e0e0e0"></path></g><g id="freepik--Shadow--inject-46"><ellipse id="freepik--path--inject-46" cx="250" cy="416.24" rx="193.89" ry="11.32" style="fill:#f5f5f5"></ellipse></g><g id="freepik--Table--inject-46"><polygon points="295.57 419 301.07 419 301.97 281.39 294.67 281.39 295.57 419" style="fill:#11B67A"></polygon><polygon points="294.67 281.61 294.81 303.81 295.57 419 301.07 419 301.82 303.81 301.97 281.61 294.67 281.61" style="fill:#fff;opacity:0.4;isolation:isolate"></polygon><polygon points="294.67 281.61 294.81 304.06 301.82 304.06 301.97 281.61 294.67 281.61" style="opacity:0.2;isolation:isolate"></polygon><polygon points="237.16 419 242.67 419 252.55 281.39 245.25 281.39 237.16 419" style="fill:#11B67A"></polygon><polygon points="237.16 419 242.67 419 252.07 288.22 252.55 281.61 245.25 281.61 244.86 288.22 237.16 419" style="fill:#fff;opacity:0.5;isolation:isolate"></polygon><polygon points="244.86 287.89 252.07 287.89 252.55 281.61 245.25 281.61 244.86 287.89" style="opacity:0.2;isolation:isolate"></polygon><polygon points="353.98 419 359.48 419 351.39 281.39 344.09 281.39 353.98 419" style="fill:#11B67A"></polygon><polygon points="344.09 281.61 344.58 288.22 353.98 419 359.48 419 351.79 288.22 351.39 281.61 344.09 281.61" style="fill:#fff;opacity:0.5;isolation:isolate"></polygon><polygon points="351.39 281.61 344.09 281.61 344.58 287.89 351.79 287.89 351.39 281.61" style="opacity:0.2;isolation:isolate"></polygon><path d="M241.63,277.94H355a2.16,2.16,0,0,1,2.16,2.16v4.73a0,0,0,0,1,0,0H239.47a0,0,0,0,1,0,0V280.1A2.16,2.16,0,0,1,241.63,277.94Z" transform="translate(596.64 562.77) rotate(180)" style="fill:#11B67A"></path><path d="M241.63,277.94H355a2.16,2.16,0,0,1,2.16,2.16v4.73a0,0,0,0,1,0,0H239.47a0,0,0,0,1,0,0V280.1A2.16,2.16,0,0,1,241.63,277.94Z" transform="translate(596.64 562.77) rotate(180)" style="fill:#fff;opacity:0.6000000000000001;isolation:isolate"></path><rect x="239.47" y="277.94" width="117.71" height="3.45" transform="translate(596.64 559.33) rotate(180)" style="opacity:0.2;isolation:isolate"></rect><path d="M236.06,278.84H360.58a1.94,1.94,0,0,0,1.95-1.94h0a1.94,1.94,0,0,0-1.95-1.94H236.06a1.94,1.94,0,0,0-1.94,1.94h0A1.94,1.94,0,0,0,236.06,278.84Z" style="fill:#11B67A"></path><path d="M236.06,278.84H360.58a1.94,1.94,0,0,0,1.95-1.94h0a1.94,1.94,0,0,0-1.95-1.94H236.06a1.94,1.94,0,0,0-1.94,1.94h0A1.94,1.94,0,0,0,236.06,278.84Z" style="fill:#fff;opacity:0.6000000000000001;isolation:isolate"></path><path d="M307.24,271.15V274h-1v1h28a2.39,2.39,0,0,0,1.7-.7,2.36,2.36,0,0,0,.71-1.7,2.41,2.41,0,0,0-2.41-2.41h-28v1Z" style="fill:#11B67A"></path><path d="M307.24,271.15V274h-1v1h15.45a2.43,2.43,0,0,0,1.7-.7,2.41,2.41,0,0,0-1.7-4.11H306.2v1Z" style="fill:#fff;opacity:0.2;isolation:isolate"></path><path d="M321.65,271.15H307.24V274h14.41a1.41,1.41,0,0,0,0-2.81Z" style="fill:#fff;opacity:0.5;isolation:isolate"></path><path d="M310.48,266.34v2.81h-1v1h28a2.39,2.39,0,0,0,1.7-.7,2.36,2.36,0,0,0,.71-1.7,2.41,2.41,0,0,0-2.41-2.41h-28v1Z" style="fill:#263238"></path><path d="M310.48,266.34v2.81h-1v1h15.45a2.43,2.43,0,0,0,1.7-.7,2.41,2.41,0,0,0-1.7-4.11H309.44v1Z" style="fill:#fff;opacity:0.2;isolation:isolate"></path><path d="M324.89,266.34H310.48v2.81h14.41a1.41,1.41,0,0,0,0-2.81Z" style="fill:#fff;opacity:0.5;isolation:isolate"></path><path d="M340.19,259.53v-2.81h1v-1h-28a2.39,2.39,0,0,0-1.7.7,2.36,2.36,0,0,0-.71,1.7,2.41,2.41,0,0,0,2.41,2.41h28v-1Z" style="fill:#11B67A"></path><path d="M340.19,259.53v-2.81h1v-1H325.78a2.43,2.43,0,0,0-1.7.7,2.41,2.41,0,0,0,1.7,4.11h15.45v-1Z" style="opacity:0.2;isolation:isolate"></path><path d="M325.78,259.53h14.41v-2.81H325.78a1.41,1.41,0,0,0,0,2.81Z" style="fill:#fff;opacity:0.5;isolation:isolate"></path><path d="M333.91,261.53v2.81h1v1h-28a2.39,2.39,0,0,1-1.7-.7,2.36,2.36,0,0,1-.71-1.7,2.41,2.41,0,0,1,2.41-2.41h28v1Z" style="fill:#11B67A"></path><path d="M333.91,261.53v2.81h1v1h-28a2.39,2.39,0,0,1-1.7-.7,2.36,2.36,0,0,1-.71-1.7,2.41,2.41,0,0,1,2.41-2.41h28v1Z" style="fill:#fff;opacity:0.5;isolation:isolate"></path><path d="M333.91,261.53v2.81h1v1H319.5a2.43,2.43,0,0,1-1.7-.7,2.41,2.41,0,0,1,1.7-4.11H335v1Z" style="opacity:0.2;isolation:isolate"></path><path d="M319.5,261.53h14.41v2.81H319.5a1.41,1.41,0,0,1,0-2.81Z" style="fill:#fff;opacity:0.5;isolation:isolate"></path><path d="M316.05,266.75v1.4h-.55C315.81,268.15,316.05,267.52,316.05,266.75Z" style="fill:#fff;opacity:0.5;isolation:isolate"></path><line x1="285.2" y1="265.64" x2="278.21" y2="254.01" style="fill:none;stroke:#263238;stroke-linecap:round;stroke-linejoin:round;stroke-width:0.5px"></line><circle cx="285.2" cy="265.64" r="1.41" style="fill:#11B67A"></circle><line x1="264.68" y1="267.74" x2="264.68" y2="254.11" style="fill:none;stroke:#263238;stroke-linecap:round;stroke-linejoin:round;stroke-width:0.5px"></line><line x1="267.49" y1="267.74" x2="267.49" y2="254.11" style="fill:none;stroke:#263238;stroke-linecap:round;stroke-linejoin:round;stroke-width:0.5px"></line><line x1="270.3" y1="267.74" x2="270.3" y2="254.11" style="fill:none;stroke:#263238;stroke-linecap:round;stroke-linejoin:round;stroke-width:0.5px"></line><line x1="273.11" y1="267.74" x2="273.11" y2="254.11" style="fill:none;stroke:#263238;stroke-linecap:round;stroke-linejoin:round;stroke-width:0.5px"></line><line x1="275.92" y1="267.74" x2="275.92" y2="254.11" style="fill:none;stroke:#263238;stroke-linecap:round;stroke-linejoin:round;stroke-width:0.5px"></line><polyline points="257.57 273.96 257.57 254.11 283.02 254.11 283.02 273.96" style="fill:none;stroke:#263238;stroke-linecap:round;stroke-linejoin:round"></polyline><polyline points="257.57 273.96 257.57 254.11 283.02 254.11 283.02 273.96" style="fill:none;stroke:#fff;stroke-miterlimit:10;opacity:0.5;isolation:isolate"></polyline><path d="M285.21,273.41H255.38a1.54,1.54,0,0,0-1.55,1.55h32.93A1.54,1.54,0,0,0,285.21,273.41Z" style="fill:#263238"></path><circle cx="264.68" cy="267.74" r="1.41" style="fill:#11B67A"></circle><circle cx="267.49" cy="267.74" r="1.4" style="fill:#11B67A"></circle><circle cx="270.3" cy="267.74" r="1.41" style="fill:#11B67A"></circle><circle cx="273.11" cy="267.74" r="1.41" style="fill:#11B67A"></circle><circle cx="275.92" cy="267.74" r="1.4" style="fill:#11B67A"></circle></g><g id="freepik--Plant--inject-46"><path d="M375.21,391.26S369.61,379,376,367s8.26-14.9,4.18-17.37-6,9.65-6,9.65-3.44-8.34-.6-17.06,4.63-22.94.75-24.46-.74,17.72-4.11,24.29A56.68,56.68,0,0,1,367,327.7c-.46-7,.26-18.2-2.8-21.07s-5-.88-2,14.58a161,161,0,0,1,3,28S358.49,329,354,328.37s-4.46,6-.63,11.68,11.19,15.91,12.4,21.16c0,0-7.3-15.27-13.87-10.59s5.71,13.9,11.19,17.23,9.28,24.22,9.28,24.22Z" style="fill:#11B67A"></path><path d="M375.21,391.26S369.61,379,376,367s8.26-14.9,4.18-17.37-6,9.65-6,9.65-3.44-8.34-.6-17.06,4.63-22.94.75-24.46-.74,17.72-4.11,24.29A56.68,56.68,0,0,1,367,327.7c-.46-7,.26-18.2-2.8-21.07s-5-.88-2,14.58a161,161,0,0,1,3,28S358.49,329,354,328.37s-4.46,6-.63,11.68,11.19,15.91,12.4,21.16c0,0-7.3-15.27-13.87-10.59s5.71,13.9,11.19,17.23,9.28,24.22,9.28,24.22Z" style="opacity:0.2;isolation:isolate"></path><path d="M370.79,396.28S376.25,384,369.7,372s-8.45-14.77-4.39-17.31,6.07,9.56,6.07,9.56,3.34-8.39.4-17.07-4.9-22.86-1-24.44.95,17.71,4.4,24.22a56.52,56.52,0,0,0,3.12-14.36c.38-7-.48-18.19,2.55-21.11s5-1,2.19,14.55a162.49,162.49,0,0,0-2.65,28.08s6.41-20.38,10.87-21,4.53,5.91.78,11.67-11,16.07-12.15,21.34c0,0,7.12-15.38,13.74-10.8s-5.55,14-11,17.4-9,24.36-9,24.36Z" style="fill:#11B67A"></path><polygon points="395.97 387.5 350.87 387.5 354.51 419.78 392.32 419.78 395.97 387.5" style="fill:#263238"></polygon></g><g id="freepik--Character--inject-46"><polygon points="117.85 419 119.48 419 130.02 328.54 126.52 329.03 117.85 419" style="fill:#11B67A"></polygon><polygon points="177.4 329.03 173.91 328.54 184.45 419 186.08 419 177.4 329.03" style="fill:#11B67A"></polygon><g style="opacity:0.1"><polygon points="125.32 341.52 117.85 419 119.48 419 128.5 341.52 125.32 341.52" style="fill:#fff"></polygon><polygon points="175.42 341.52 184.45 419 186.08 419 178.61 341.52 175.42 341.52" style="fill:#fff"></polygon></g><path d="M186.08,419l-18.7-53.3,10-36.67-3.49-.49L165.74,361l-11.4-32.49-2.38.33-2.37-.33L138.19,361,130,328.54l-3.5.49,10,36.67L117.85,419h1.63l18.27-48.92L151.13,419h1.67l13.38-48.92L184.45,419ZM152,415.84l-12.59-50.1L152,332l12.6,33.72Z" style="fill:#11B67A"></path><path d="M127.4,319.2h49.12a3.66,3.66,0,0,1,3.66,3.66v6.62a0,0,0,0,1,0,0H123.74a0,0,0,0,1,0,0v-6.62A3.66,3.66,0,0,1,127.4,319.2Z" style="fill:#263238"></path><rect x="121.92" y="325.53" width="60.09" height="5.8" rx="1.05" style="fill:#11B67A"></rect><rect x="121.92" y="325.53" width="60.09" height="5.8" rx="1.05" style="fill:#fff;opacity:0.5"></rect><path d="M175.72,335.18l-3.5.07L165.74,361l-9-25.61h-3.51l11.32,30.32L152,415.84l-12.59-50.1,11.32-30.32-3.51,0-9,25.63-6.55-26c-1.24-.06-2.42-.13-3.54-.2l8.45,30.91L117.85,419h1.63l18.27-48.92L151.13,419h1.67l13.38-48.92L184.45,419h1.63l-18.7-53.3Z" style="fill:#fff;opacity:0.30000000000000004"></path><g id="freepik--group--inject-46"><path d="M194.74,232.83c2.43,2,4.37,10.31,4.37,10.31l-8.57,8.72-7.81-9.61S189.25,228.34,194.74,232.83Z" style="fill:#11B67A"></path><path d="M199.11,243.15l-8.57,8.72-2.28-2.8-5.53-6.81a33.86,33.86,0,0,1,5.25-7.89c2.08-2.12,4.51-3.38,6.76-1.54C197.17,234.81,199.11,243.15,199.11,243.15Z" style="fill:#fff;opacity:0.6000000000000001;isolation:isolate"></path><path d="M188.26,249.07l-5.53-6.81a33.86,33.86,0,0,1,5.25-7.89S191.62,243.74,188.26,249.07Z" style="opacity:0.2;isolation:isolate"></path><path d="M179.93,280.43c.07-8.71,1.4-35.3,14.81-47.61a39.75,39.75,0,0,0-8.35-6.88,50.49,50.49,0,0,0-22.19-7.68c-5.33-.54-6.32-.31-13,1.1,0,0-15.21,18.17-16.29,61.07Z" style="fill:#11B67A"></path><path d="M179.93,280.43c0-1.32,0-3,.16-5.05a115.31,115.31,0,0,1,1.38-12.89c1.76-10.5,5.47-22.5,13.27-29.66A39.5,39.5,0,0,0,186.4,226a50.58,50.58,0,0,0-22.2-7.68c-5.33-.54-6.32-.32-13,1.1a42.71,42.71,0,0,0-4.39,7.07,81.85,81.85,0,0,0-4.39,10.1c-3.6,9.89-7,24.32-7.52,43.89Z" style="fill:#fff;opacity:0.6000000000000001;isolation:isolate"></path><path d="M179.53,252c-1.51,6-6.3,10-10.71,8.89S162.06,254,163.57,248s6.3-10,10.71-8.89S181,246,179.53,252Z" style="fill:#fff"></path><path d="M174.41,248a2.25,2.25,0,0,0-1.84-2.87,3,3,0,0,0-2.94,1.22l-.6-.94a3.88,3.88,0,0,1,3.82-1.56c2,.32,3,1.9,2.63,4.09-.57,3.5-3.15,3.25-3.63,6.18l-1-.17C171.37,250.55,174,250.66,174.41,248Zm-4.35,9.25c.1-.59.49-1,.9-.92s.66.57.56,1.16-.49,1-.91.95S170,257.81,170.06,257.23Z" style="fill:#263238"></path><path d="M160,260.24c-1.36-1.14-2.84-4.9-4.22-9.4,4.2.36,3.73-4.7,3.73-4.7l2.85-.39a52,52,0,0,0-2.57-15.44c-1.29-4-8.86-3.88-13-3.87a81.85,81.85,0,0,0-4.39,10.1c.49,3.28,0,7.34,4.83,9.73.84,10.63,3,23.67,8.32,26.48,6.16,3.24,17.48,3.1,24.48,2.62a115.31,115.31,0,0,1,1.38-12.89C174.76,262.67,162.88,262.64,160,260.24Z" style="opacity:0.2;isolation:isolate"></path><path d="M154.08,220.62c5.89-1.25,4.72,27.39,6.3,34.68s31.08,1.39,31.08,1.39l1.36,5.72S163.53,272,154.65,267c-7.92-4.41-8.11-27.19-7.92-35.3S151.43,221.18,154.08,220.62Z" style="fill:#e4897b"></path><path d="M181.43,224.72a11.59,11.59,0,0,0,1.39,1.12,9.64,9.64,0,0,1-9.89,4.33c-6.85-1.08-8.83-11.32-8.83-11.32s4.47.05,6.46-.86,6.16-7.06,6.16-7.06L178,212l7.76,6.71s-5.54,3.16-5.41,4.35A3.17,3.17,0,0,0,181.43,224.72Z" style="fill:#e4897b"></path><path d="M180.32,223.07a3.17,3.17,0,0,0,1.11,1.65c-5.81-1.19-4.1-12.67-4.1-12.67l.64,0,7.76,6.71S180.19,221.88,180.32,223.07Z" style="opacity:0.2;isolation:isolate"></path><path d="M203.44,199.4s.13,9.55-6.5,13.11-3.76-17.62-3.76-17.62Z" style="fill:#263238"></path><path d="M198.93,216.45a25.45,25.45,0,0,1-1.46,2.86c-.17.27-.33.53-.51.77l-.18.24a11.58,11.58,0,0,1-7.28,4.46,13.15,13.15,0,0,1-1.39.16,10.32,10.32,0,0,1-9.72-5.4,3.24,3.24,0,0,1-.2-.36c-2.73-5.27-1.17-9.88.83-17.89a11.3,11.3,0,0,1,18.23-6.1C203.09,200,201.91,209.69,198.93,216.45Z" style="fill:#e4897b"></path><path d="M190.28,207.24a1,1,0,0,0,.39,1.39c.43.14.93-.28,1.13-.92s0-1.27-.4-1.4S190.49,206.59,190.28,207.24Z" style="fill:#263238"></path><path d="M197.52,209.51c-.24.62,0,1.27.4,1.4s.92-.29,1.12-.93,0-1.27-.39-1.39S197.72,208.9,197.52,209.51Z" style="fill:#263238"></path><path d="M195.12,209.1a24.14,24.14,0,0,0,1.34,6.45,3.9,3.9,0,0,1-3.26-.4Z" style="fill:#de5753"></path><path d="M189.53,202.6a.4.4,0,0,0,.41,0,3.18,3.18,0,0,1,2.85,0,.39.39,0,0,0,.53-.13.38.38,0,0,0-.13-.54h0a3.92,3.92,0,0,0-3.59,0,.39.39,0,0,0-.2.52h0A.53.53,0,0,0,189.53,202.6Z" style="fill:#263238"></path><path d="M187,214.37h0a6,6,0,0,1,4.18,3.7.21.21,0,0,1-.13.26.2.2,0,0,1-.26-.12v0a5.77,5.77,0,0,0-3.9-3.41.2.2,0,0,1-.15-.24v0a.22.22,0,0,1,.24-.16Z" style="fill:#263238"></path><path d="M201.53,207.31a.37.37,0,0,0,.23-.05.39.39,0,0,0,.06-.55h0a3.9,3.9,0,0,0-3.3-1.44.39.39,0,0,0-.34.44h0a.39.39,0,0,0,.44.34h0a3.19,3.19,0,0,1,2.6,1.18A.41.41,0,0,0,201.53,207.31Z" style="fill:#263238"></path><path d="M174.57,213.17h0a1.71,1.71,0,0,0,2.76-1.12c.28-2.59,1-4.81,1.71-4.82,1.16,0,.89,1.28.89,1.28,2.75-1.24,5.63-5.39,5.27-8.64-.26-2.34,2.31-3.73,4.37-2.71,0,0-8-5.77-10.29-4s-5.36,7.6-5.4,15.08A16.07,16.07,0,0,0,174.57,213.17Z" style="fill:#263238"></path><path d="M173.56,206.66a7.86,7.86,0,0,0,3.1,5.14c2.23,1.61,4.3-.15,4.49-2.75.14-2.32-.81-6-3.44-6.58S173.21,204.14,173.56,206.66Z" style="fill:#e4897b"></path><path d="M183.88,189c.46-2.51,2.49-1.92,5.69-1.78s3.25-1.19,3.25-1.19a1.66,1.66,0,0,1,.56,2.11,3.87,3.87,0,0,1,3.08.06c1.33.8,2,3.1,3,2.84s2.24-1.47,3.23,0a3,3,0,0,1,.53,2.63s1.25,1.21,2.11,0c0,0,.59,1.9-.86,2.23a2.15,2.15,0,0,1,1.32,2.57c-.53,1.85-1.45,3.41-.86,3.91,0,0-.2,1.21-1.18.3,0,0,.11,2.4-1.82,2.58,0,0,.36-3.82-1.09-6.39a1.9,1.9,0,0,1-2.55,1.64c-2.39-.46-2.89-.85-3.53.6,0,0-.64-1.39,1.14-2.31a2.07,2.07,0,0,0-2.5-.26c-1.52.79-3,.92-3.2-.4,0,0-2.6,2.18-5.54-.72s-9.27,2.62-10.16,5.26c0,0-1.65-1,0-3a1.4,1.4,0,0,1-1.68-1.12s1.46.33,2.11-1.59c0,0-.59-.66-.59-2.77s3-2.24,3-2.24-.19-1.12-1.77-.72a3,3,0,0,1,3.89-.27,2.15,2.15,0,0,1,1.7-2.63c2.26-.73,1.27-1.78,1.27-1.78a1.05,1.05,0,0,1,1,1.05C183.51,189.05,183.88,189,183.88,189Z" style="fill:#263238"></path><path d="M151.23,219.36c5.21-2.9,9.06,1.73,9.25,22.89H144.26S144.11,223.34,151.23,219.36Z" style="fill:#11B67A"></path><path d="M151.23,219.36c5.21-2.9,9.06,1.73,9.25,22.89H144.26S144.11,223.34,151.23,219.36Z" style="fill:#fff;opacity:0.6000000000000001;isolation:isolate"></path><path d="M197,220.08l-.18.24a11.58,11.58,0,0,1-7.28,4.46,13.15,13.15,0,0,1-1.39.16,4.41,4.41,0,0,0,.52-1.12c.07-.72,5.24-3.58,5.83-3.72C194.77,220,197,220.08,197,220.08Z" style="opacity:0.1;isolation:isolate"></path><path d="M207.24,262.6a2.2,2.2,0,0,1-.15.26c-4.49,6.76-15.21-12.49-15.21-12.49l6.39-6.49s-.79-8-2.44-11.94a22.15,22.15,0,0,1-2.63-.71,38.14,38.14,0,0,1-4.38-7.47s5.15-3.18,6-3.18,6.57,10.8,6.57,10.8S211.32,255.5,207.24,262.6Z" style="fill:#e4897b"></path><path d="M207.24,262.6a2.2,2.2,0,0,1-.15.26c-4.49,6.76-15.21-12.49-15.21-12.49l6.39-6.49s.44,8.66.84,9.78,6.4,1.91,6.4,1.91A10.78,10.78,0,0,1,207.24,262.6Z" style="opacity:0.2;isolation:isolate"></path><path d="M190.17,258.33s1.27-3.45,2.65-3.21,10.49.29,12.27,1.06-1.07,7.3-2.77,8-10.17-1.65-11.51-2.66S190.17,258.33,190.17,258.33Z" style="fill:#e4897b"></path><polygon points="174.91 411.39 183.95 413.3 193.61 397.42 184.57 395.51 174.91 411.39" style="fill:#e4897b"></polygon><path d="M185.78,409.47H175.66a.73.73,0,0,0-.71.57l-1.64,7.42a1.22,1.22,0,0,0,.95,1.45l.27,0c3.27-.05,5.65-.25,9.76-.25,2.54,0,10.17.26,13.67.26s3.95-3.45,2.52-3.77c-6.42-1.4-11.25-3.34-13.3-5.18A2,2,0,0,0,185.78,409.47Z" style="fill:#263238"></path><path d="M186.35,410.63a.22.22,0,0,1-.15-.17.18.18,0,0,1,.1-.19c.29-.2,3-1.85,3.91-1.37a.57.57,0,0,1,.33.55,1.16,1.16,0,0,1-.41,1.06,2.45,2.45,0,0,1-1.6.42A10,10,0,0,1,186.35,410.63Zm.57-.28a4,4,0,0,0,3-.15.79.79,0,0,0,.26-.71c0-.16-.07-.23-.12-.23a.47.47,0,0,0-.26-.05A8,8,0,0,0,186.92,410.35Z" style="fill:#11B67A"></path><path d="M186.3,410.67a.22.22,0,0,1-.1-.18c0-.12.21-2.51,1.18-3.3a1,1,0,0,1,.83-.25.65.65,0,0,1,.64.52c.17.88-1.49,2.71-2.35,3.18h-.1A.19.19,0,0,1,186.3,410.67Zm1.33-3.24a4.62,4.62,0,0,0-1,2.6c.85-.64,1.91-2,1.81-2.57,0,0,0-.2-.29-.2h-.09A.66.66,0,0,0,187.63,407.43Z" style="fill:#11B67A"></path><polygon points="184.57 395.51 193.61 397.42 188.62 405.61 179.59 403.7 184.57 395.51" style="opacity:0.2;isolation:isolate"></polygon><polygon points="157.72 413.28 166.95 413.2 172.99 395.63 163.75 395.7 157.72 413.28" style="fill:#e4897b"></polygon><path d="M167.86,409.52H157.75a.73.73,0,0,0-.71.57l-1.64,7.42a1.22,1.22,0,0,0,.94,1.45,1.24,1.24,0,0,0,.27,0c3.28-.05,5.66-.25,9.77-.25,2.53,0,10.17.26,13.67.26s3.95-3.45,2.52-3.77c-6.42-1.4-11.25-3.34-13.31-5.18A2,2,0,0,0,167.86,409.52Z" style="fill:#263238"></path><path d="M168.44,410.67a.19.19,0,0,1-.15-.17.19.19,0,0,1,.09-.19c.3-.19,3-1.84,3.91-1.36a.57.57,0,0,1,.34.55,1.16,1.16,0,0,1-.41,1.06,2.45,2.45,0,0,1-1.6.42A9.4,9.4,0,0,1,168.44,410.67Zm.57-.27a4.07,4.07,0,0,0,3-.15.85.85,0,0,0,.26-.71c0-.16-.07-.23-.13-.23a.51.51,0,0,0-.25-.06A8.15,8.15,0,0,0,169,410.4Z" style="fill:#11B67A"></path><path d="M168.38,410.72a.21.21,0,0,1-.09-.18c0-.12.21-2.51,1.17-3.3a1.07,1.07,0,0,1,.84-.25.64.64,0,0,1,.64.52c.17.88-1.5,2.71-2.35,3.17h-.1A.15.15,0,0,1,168.38,410.72Zm1.34-3.25a4.69,4.69,0,0,0-1,2.61c.86-.65,1.92-2,1.82-2.57,0-.06,0-.21-.29-.21h-.1A.77.77,0,0,0,169.72,407.47Z" style="fill:#11B67A"></path><polygon points="163.75 395.7 172.99 395.63 169.87 404.69 160.63 404.77 163.75 395.7" style="opacity:0.2;isolation:isolate"></polygon><path d="M133.56,292.21l1.53-18L180,277.38l2,15.11s47,18.84,53.44,32.85c9.89,21.55-42.77,75.71-42.77,75.71l-11.81-1.39s31.86-45.38,25-62.35c-4-9.81-41.09-16.42-41.09-16.42S130.5,321,133.56,292.21Z" style="fill:#263238"></path><path d="M192.67,401.06l-11.81-1.4s30-42.81,25.51-60.75a10.3,10.3,0,0,0-.51-1.6c-4-9.8-41.09-16.42-41.09-16.42A47.3,47.3,0,0,1,149.68,318c-8.75-3.31-17.75-10.44-16.12-25.82l1.53-18L180,277.39l2,15.1s47,18.84,53.44,32.85C245.33,346.89,192.67,401.06,192.67,401.06Z" style="fill:#fff;opacity:0.4;isolation:isolate"></path><path d="M206.37,338.91a10.3,10.3,0,0,0-.51-1.6c-4-9.8-41.09-16.42-41.09-16.42A47.3,47.3,0,0,1,149.68,318l29.53-18.73s19,7,26.43,22.41C208.28,327.23,207.93,333.34,206.37,338.91Z" style="opacity:0.2;isolation:isolate"></path><polygon points="193.64 403.78 178.72 401.4 180.16 397.34 196.39 400.72 193.64 403.78" style="fill:#11B67A"></polygon><polygon points="193.64 403.78 178.72 401.4 180.16 397.34 196.39 400.72 193.64 403.78" style="fill:#fff;opacity:0.5"></polygon><polygon points="151.01 276.4 150.78 282.13 179.92 282.01 179.99 277.78 151.01 276.4" style="fill:#263238"></polygon><polygon points="149.33 276.32 134.87 275.63 134.56 282.2 149.33 282.14 149.33 276.32" style="fill:#263238"></polygon><path d="M171.07,282.21l-5.66.28a.93.93,0,0,1-1-.87v-4a.92.92,0,0,1,1-.86l5.66.28a.85.85,0,0,1,.81.84v3.53A.86.86,0,0,1,171.07,282.21Z" style="fill:#fff"></path><path d="M169.76,293.88s18.39,8.3,26,22.15-22.49,85.37-22.49,85.37l-12.8.66s13.9-63.51,11.4-68.83-39.31-4.54-38.51-35.79Z" style="fill:#263238"></path><path d="M169.76,293.88s18.39,8.3,26,22.15-22.49,85.37-22.49,85.37l-12.8.66s13.9-63.51,11.4-68.83-39.31-4.54-38.51-35.79Z" style="fill:#fff;opacity:0.4;isolation:isolate"></path><polygon points="174.53 401.73 159.49 403.12 159.87 398.83 176.44 398.09 174.53 401.73" style="fill:#11B67A"></polygon><polygon points="174.53 401.73 159.49 403.12 159.87 398.83 176.44 398.09 174.53 401.73" style="fill:#fff;opacity:0.5"></polygon></g></g><g id="freepik--Icons--inject-46"><circle cx="312.01" cy="215.54" r="14.85" transform="translate(30.56 469.69) rotate(-76.72)" style="fill:#11B67A"></circle><circle cx="312.01" cy="215.54" r="17.85" transform="translate(-58.73 135.81) rotate(-22.5)" style="fill:none;stroke:#11B67A;stroke-linecap:round;stroke-linejoin:round;stroke-width:0.5px;stroke-dasharray:5,3,10,3,2,15"></circle><circle cx="312.01" cy="215.54" r="14.85" transform="translate(30.56 469.69) rotate(-76.72)" style="fill:#fff;opacity:0.8;isolation:isolate"></circle><path d="M320,210v9.38s-4.87-.2-7.76.94l-.19.07-.2-.07c-2.9-1.14-7.76-.94-7.76-.94V210l-.59,0v10.6s5.23-.21,8.34,1l.21.09.2-.09c3.11-1.21,8.34-1,8.34-1V210Z" style="fill:#11B67A"></path><path d="M312,210.48a17.44,17.44,0,0,0-8-1v9.87s4.87-.2,7.76.94l.2.07.19-.07c2.89-1.14,7.76-.94,7.76-.94v-9.87A17.33,17.33,0,0,0,312,210.48Z" style="fill:none;stroke:#11B67A;stroke-linecap:round;stroke-linejoin:round;stroke-width:0.5px"></path><line x1="312.02" y1="210.48" x2="312.02" y2="220.35" style="fill:none;stroke:#11B67A;stroke-linecap:round;stroke-linejoin:round;stroke-width:0.5px"></line><circle cx="171.88" cy="98.78" r="14.85" transform="translate(36.25 243.36) rotate(-76.72)" style="fill:#11B67A"></circle><path d="M163.64,114.61A17.85,17.85,0,1,1,187.71,107,17.87,17.87,0,0,1,163.64,114.61Z" style="fill:none;stroke:#11B67A;stroke-linecap:round;stroke-linejoin:round;stroke-width:0.5px;stroke-dasharray:4.916130065917969,2.9496800899505615,9.832269668579102,2.9496800899505615,1.9664499759674072,14.74839973449707"></path><circle cx="171.88" cy="98.78" r="14.85" transform="translate(36.25 243.36) rotate(-76.72)" style="fill:#fff;opacity:0.8;isolation:isolate"></circle><path d="M170.59,94a1.18,1.18,0,0,1,1.28-1.16A1.17,1.17,0,0,1,173.16,94a1.19,1.19,0,0,1-1.29,1.19A1.17,1.17,0,0,1,170.59,94Zm.25,2.15h2.07v7.14h-2.07Z" style="fill:#11B67A"></path><path d="M180.31,98c0-4.23-3.78-7.66-8.43-7.66s-8.43,3.43-8.43,7.66,3.78,7.66,8.43,7.66c.35,0,.7,0,1-.06h0l2.25,2.9v-3.43h0A7.69,7.69,0,0,0,180.31,98Z" style="fill:none;stroke:#11B67A;stroke-linecap:round;stroke-linejoin:round;stroke-width:0.5px"></path><circle cx="323.71" cy="97.32" r="14.85" transform="translate(154.62 390.01) rotate(-76.72)" style="fill:#11B67A"></circle><path d="M314.89,112.83a17.85,17.85,0,1,1,24.34-6.7A17.86,17.86,0,0,1,314.89,112.83Z" style="fill:none;stroke:#11B67A;stroke-linecap:round;stroke-linejoin:round;stroke-width:0.5px;stroke-dasharray:5,3,10,3,2,15"></path><circle cx="323.71" cy="97.32" r="14.85" transform="translate(154.62 390.01) rotate(-76.72)" style="fill:#fff;opacity:0.8;isolation:isolate"></circle><path d="M325.18,98.8a1.74,1.74,0,0,1,0-3,3.18,3.18,0,0,0,1.09-2.06h-5.12a3.18,3.18,0,0,0,1.09,2.06,1.74,1.74,0,0,1,0,3,3.18,3.18,0,0,0-1.09,2.06h5.12A3.18,3.18,0,0,0,325.18,98.8Z" style="fill:none;stroke:#11B67A;stroke-linecap:round;stroke-linejoin:round;stroke-width:0.5px"></path><rect x="320.31" y="92.45" width="6.8" height="1.4" rx="0.22" style="fill:#11B67A"></rect><rect x="320.31" y="100.78" width="6.8" height="1.4" rx="0.22" style="fill:#11B67A"></rect><path d="M320,90.36a7.9,7.9,0,0,1,9.88,11.94" style="fill:none;stroke:#11B67A;stroke-linecap:round;stroke-linejoin:round;stroke-width:0.5px"></path><polyline points="329.37 100.96 329.69 102.62 331.3 102.31" style="fill:none;stroke:#11B67A;stroke-linecap:round;stroke-linejoin:round;stroke-width:0.5px"></polyline><path d="M327.4,104.27a7.9,7.9,0,0,1-9.88-11.94" style="fill:none;stroke:#11B67A;stroke-linecap:round;stroke-linejoin:round;stroke-width:0.5px"></path><polyline points="318.05 93.67 317.73 92.01 316.12 92.32" style="fill:none;stroke:#11B67A;stroke-linecap:round;stroke-linejoin:round;stroke-width:0.5px"></polyline><line x1="187.03" y1="108.2" x2="189.16" y2="109.52" style="fill:none;stroke:#11B67A;stroke-linecap:round;stroke-linejoin:round;stroke-width:0.5px"></line><line x1="192.38" y1="111.53" x2="199.37" y2="115.88" style="fill:none;stroke:#11B67A;stroke-linecap:round;stroke-linejoin:round;stroke-width:0.5px;stroke-dasharray:6.32951021194458,3.7977099418640137"></line><line x1="200.98" y1="116.88" x2="203.1" y2="118.2" style="fill:none;stroke:#11B67A;stroke-linecap:round;stroke-linejoin:round;stroke-width:0.5px"></line><line x1="285.96" y1="118.28" x2="288.13" y2="117.05" style="fill:none;stroke:#11B67A;stroke-linecap:round;stroke-linejoin:round;stroke-width:0.5px"></line><line x1="290.93" y1="115.47" x2="304.45" y2="107.84" style="fill:none;stroke:#11B67A;stroke-linecap:round;stroke-linejoin:round;stroke-width:0.5px;stroke-dasharray:5.3541998863220215,3.212519884109497"></line><line x1="305.85" y1="107.05" x2="308.02" y2="105.82" style="fill:none;stroke:#11B67A;stroke-linecap:round;stroke-linejoin:round;stroke-width:0.5px"></line><path d="M203.93,118.2a.83.83,0,0,1-1.65,0,.83.83,0,0,1,1.65,0Z" style="fill:#11B67A"></path><path d="M187.86,108.2a.83.83,0,1,1-.83-.82A.83.83,0,0,1,187.86,108.2Z" style="fill:#11B67A"></path><path d="M286.78,118.28a.83.83,0,1,1-.82-.82A.83.83,0,0,1,286.78,118.28Z" style="fill:#11B67A"></path><path d="M308.85,105.82A.83.83,0,1,1,308,105,.83.83,0,0,1,308.85,105.82Z" style="fill:#11B67A"></path><path d="M278.07,179.23a.83.83,0,1,1-.82-.82A.82.82,0,0,1,278.07,179.23Z" style="fill:#11B67A"></path><path d="M300.17,202.84a.83.83,0,1,1-.83-.82A.82.82,0,0,1,300.17,202.84Z" style="fill:#11B67A"></path><line x1="299.21" y1="202.68" x2="297.5" y2="200.85" style="fill:none;stroke:#11B67A;stroke-linecap:round;stroke-linejoin:round;stroke-width:0.5px"></line><line x1="295.44" y1="198.65" x2="279.99" y2="182.15" style="fill:none;stroke:#11B67A;stroke-linecap:round;stroke-linejoin:round;stroke-width:0.5px;stroke-dasharray:5.023600101470947,3.014159917831421"></line><line x1="278.96" y1="181.05" x2="277.25" y2="179.23" style="fill:none;stroke:#11B67A;stroke-linecap:round;stroke-linejoin:round;stroke-width:0.5px"></line><circle cx="244.5" cy="143.46" r="48.49" transform="translate(-26.18 59.24) rotate(-13.12)" style="fill:none;stroke:#11B67A;stroke-linecap:round;stroke-linejoin:round;stroke-width:0.5px;stroke-dasharray:5,3,15,10,2,15"></circle></g><g id="freepik--Process--inject-46"><circle cx="244.5" cy="143.46" r="45.49" style="fill:#11B67A"></circle><path d="M240.73,123.85v3.55l1.83.17a9.62,9.62,0,0,0,1.36,3.28l-1.17,1.42,2.51,2.51,1.42-1.18A9.44,9.44,0,0,0,250,135l.17,1.82h3.55l.17-1.82a9.44,9.44,0,0,0,3.28-1.37l1.42,1.18,2.51-2.51-1.18-1.42a9.44,9.44,0,0,0,1.37-3.28l1.83-.17v-3.55l-1.83-.18a9.39,9.39,0,0,0-1.37-3.27l1.18-1.42-2.51-2.51-1.42,1.17a9.42,9.42,0,0,0-3.28-1.36l-.17-1.83h-3.55l-.17,1.83a9.42,9.42,0,0,0-3.28,1.36l-1.42-1.17L242.75,119l1.17,1.41a9.7,9.7,0,0,0-1.36,3.28Zm11.17-3a4.81,4.81,0,1,1-4.8,4.8A4.8,4.8,0,0,1,251.9,120.82Z" style="fill:#f5f5f5"></path><path d="M243,149.75a7.23,7.23,0,0,0,2.57-1.07l1.11.92,2-2-.92-1.12a7.18,7.18,0,0,0,1.07-2.56l1.43-.14V141l-1.43-.14a7.3,7.3,0,0,0-1.07-2.57l.92-1.11-2-2-1.11.92a7.4,7.4,0,0,0-2.57-1.06l-.13-1.44h-2.78l-.14,1.44a7.48,7.48,0,0,0-2.57,1.06l-1.11-.92-2,2,.92,1.11a7.7,7.7,0,0,0-1.07,2.57l-1.43.14v2.78l1.43.14a7.56,7.56,0,0,0,1.07,2.56l-.92,1.12,2,2,1.11-.92a7.3,7.3,0,0,0,2.57,1.07l.14,1.43h2.78Zm-5.29-7.32a3.77,3.77,0,1,1,3.77,3.77A3.77,3.77,0,0,1,237.73,142.43Z" style="fill:#f5f5f5"></path><path d="M235.78,134.06l.78.93,1.93-1.32-.59-1.06a6,6,0,0,0,1.28-2l1.21.11.43-2.3-1.16-.33a6.55,6.55,0,0,0-.48-2.29l.93-.77-1.32-1.93-1.06.58a6.47,6.47,0,0,0-1.95-1.28l.11-1.2-2.3-.43-.33,1.16a6.09,6.09,0,0,0-2.29.48l-.77-.93-1.93,1.31.58,1.06a6.52,6.52,0,0,0-1.28,2l-1.2-.11-.44,2.29,1.16.34a6.25,6.25,0,0,0,.49,2.28l-.94.78,1.32,1.93,1.06-.59a6.16,6.16,0,0,0,2,1.28l-.12,1.21,2.3.43.34-1.16A6,6,0,0,0,235.78,134.06Zm-5.51-6.39a3.16,3.16,0,1,1,2.52,3.7A3.16,3.16,0,0,1,230.27,127.67Z" style="fill:#f5f5f5"></path><path d="M266.76,166.67H222.25a3.06,3.06,0,0,1-3.06-3.07h0a3.06,3.06,0,0,1,3.06-3.06h44.51a3.06,3.06,0,0,1,3.06,3.06h0A3.06,3.06,0,0,1,266.76,166.67Z" style="opacity:0.4;isolation:isolate"></path><path d="M222.25,165.67a2.07,2.07,0,0,1,0-4.13h27.51a2.07,2.07,0,0,1,0,4.13Z" style="fill:#f5f5f5"></path><circle cx="226.35" cy="194.61" r="6.89" style="fill:#11B67A"></circle><path d="M220,203.17a3.91,3.91,0,1,1-3.9-3.91A3.91,3.91,0,0,1,220,203.17Z" style="fill:#11B67A"></path><path d="M209.9,204.52a2.14,2.14,0,1,1-2.13-2.14A2.14,2.14,0,0,1,209.9,204.52Z" style="fill:#11B67A"></path></g></svg>