<svg xmlns="http://www.w3.org/2000/svg" viewBox="0 0 500 500"><g id="freepik--background-complete--inject-4"><rect y="382.4" width="500" height="0.25" style="fill:#ebebeb"></rect><path d="M237,337.8H43.92a5.71,5.71,0,0,1-5.71-5.71V60.66A5.71,5.71,0,0,1,43.92,55H237a5.71,5.71,0,0,1,5.71,5.71V332.09A5.71,5.71,0,0,1,237,337.8ZM43.92,55.2a5.47,5.47,0,0,0-5.46,5.46V332.09a5.47,5.47,0,0,0,5.46,5.46H237a5.47,5.47,0,0,0,5.46-5.46V60.66A5.47,5.47,0,0,0,237,55.2Z" style="fill:#ebebeb"></path><path d="M453.31,337.8H260.21a5.72,5.72,0,0,1-5.71-5.71V60.66A5.72,5.72,0,0,1,260.21,55h193.1A5.71,5.71,0,0,1,459,60.66V332.09A5.71,5.71,0,0,1,453.31,337.8ZM260.21,55.2a5.47,5.47,0,0,0-5.46,5.46V332.09a5.47,5.47,0,0,0,5.46,5.46h193.1a5.47,5.47,0,0,0,5.46-5.46V60.66a5.47,5.47,0,0,0-5.46-5.46Z" style="fill:#ebebeb"></path><rect x="423.9" y="391.92" width="26" height="0.25" style="fill:#ebebeb"></rect><rect x="301.93" y="389.21" width="54.1" height="0.25" style="fill:#ebebeb"></rect><rect x="396.59" y="401.21" width="35.41" height="0.25" style="fill:#ebebeb"></rect><rect x="52.46" y="399.53" width="23.69" height="0.25" style="fill:#ebebeb"></rect><rect x="85.05" y="399.53" width="25.84" height="0.25" style="fill:#ebebeb"></rect><rect x="210.58" y="395.31" width="54.56" height="0.25" style="fill:#ebebeb"></rect><rect x="60.81" y="81.06" width="89.61" height="193.79" style="fill:#e6e6e6"></rect><rect x="64.24" y="81.06" width="89.61" height="193.79" style="fill:#f5f5f5"></rect><rect x="17.89" y="139.31" width="182.3" height="77.3" transform="translate(287 68.92) rotate(90)" style="fill:#fff"></rect><rect x="55.25" y="176.66" width="182.3" height="2.59" transform="translate(324.35 31.56) rotate(90)" style="fill:#e6e6e6"></rect><rect x="66.78" y="245.49" width="84.52" height="7.71" style="fill:#f5f5f5"></rect><rect x="66.78" y="225.15" width="84.52" height="7.71" style="fill:#f5f5f5"></rect><rect x="352.37" y="81.06" width="89.61" height="193.79" style="fill:#e6e6e6"></rect><rect x="355.8" y="81.06" width="89.61" height="193.79" style="fill:#f5f5f5"></rect><rect x="309.45" y="139.31" width="182.3" height="77.3" transform="translate(578.56 -222.64) rotate(90)" style="fill:#fff"></rect><rect x="346.81" y="176.66" width="182.3" height="2.59" transform="translate(615.91 -260) rotate(90)" style="fill:#e6e6e6"></rect><rect x="358.34" y="245.49" width="84.52" height="7.71" style="fill:#f5f5f5"></rect><rect x="358.34" y="225.15" width="84.52" height="7.71" style="fill:#f5f5f5"></rect><polygon points="209.9 200.99 189.81 200.99 192.18 152.65 209.9 152.65 209.9 200.99" style="fill:#f5f5f5"></polygon><polygon points="192.33 207.52 188 212.08 192.33 212.08 218.89 207.52 192.33 207.52" style="fill:#f5f5f5"></polygon><polygon points="188 207.52 188 212.08 214.56 207.52 188 207.52" style="fill:#e6e6e6"></polygon><polygon points="296.5 207.52 292.16 212.08 296.5 212.08 323.06 207.52 296.5 207.52" style="fill:#f5f5f5"></polygon><polygon points="292.16 207.52 292.16 212.08 318.73 207.52 292.16 207.52" style="fill:#e6e6e6"></polygon><rect x="168.5" y="201.06" width="28.89" height="7.01" transform="translate(365.88 409.14) rotate(180)" style="fill:#e6e6e6"></rect><rect x="197.38" y="201.06" width="143.63" height="7.01" style="fill:#f5f5f5"></rect><polygon points="239.4 200.99 196.28 200.99 190.95 142.41 234.07 142.41 239.4 200.99" style="fill:#e6e6e6"></polygon><polygon points="241.64 200.99 198.52 200.99 193.19 142.41 236.31 142.41 241.64 200.99" style="fill:#f0f0f0"></polygon><polygon points="202.14 194.5 197.26 148.9 232.68 148.9 237.56 194.5 202.14 194.5" style="fill:#fafafa"></polygon><polygon points="269.19 200.99 244.87 200.99 247.74 142.47 269.19 142.47 269.19 200.99" style="fill:#e0e0e0"></polygon><polygon points="304.91 200.99 252.72 200.99 246.26 130.08 298.46 130.08 304.91 200.99" style="fill:#e6e6e6"></polygon><polygon points="307.62 200.99 255.42 200.99 248.96 130.08 301.16 130.08 307.62 200.99" style="fill:#f0f0f0"></polygon><polygon points="259.8 193.14 253.9 137.93 296.78 137.93 302.68 193.14 259.8 193.14" style="fill:#fafafa"></polygon><polygon points="301.56 200.99 290 200.99 291.36 173.16 301.56 173.16 301.56 200.99" style="fill:#e0e0e0;opacity:0.5"></polygon><polygon points="318.55 200.99 293.73 200.99 290.66 167.27 315.48 167.27 318.55 200.99" style="fill:#f0f0f0"></polygon><polygon points="319.83 200.99 295.01 200.99 291.94 167.27 316.76 167.27 319.83 200.99" style="fill:#f5f5f5"></polygon><polygon points="297.1 197.26 294.29 171 314.68 171 317.49 197.26 297.1 197.26" style="fill:#fff"></polygon><rect x="307.24" y="300.17" width="23.76" height="82.23" style="fill:#e6e6e6"></rect><polygon points="326.49 382.4 331 382.4 331 369.56 321.75 369.56 326.49 382.4" style="fill:#f0f0f0"></polygon><rect x="187.81" y="300.17" width="23.76" height="82.23" style="fill:#e6e6e6"></rect><rect x="207.63" y="300.17" width="123.37" height="75.91" style="fill:#f0f0f0"></rect><path d="M323.32,359H275a4.71,4.71,0,0,1-4.7-4.7V308.09a4.71,4.71,0,0,1,4.7-4.7h48.31a4.71,4.71,0,0,1,4.7,4.7V354.3A4.71,4.71,0,0,1,323.32,359ZM275,304.44a3.66,3.66,0,0,0-3.66,3.65V354.3A3.66,3.66,0,0,0,275,358h48.31A3.66,3.66,0,0,0,327,354.3V308.09a3.66,3.66,0,0,0-3.66-3.65Z" style="fill:#e0e0e0"></path><path d="M263.62,359H215.31a4.71,4.71,0,0,1-4.7-4.7V308.09a4.71,4.71,0,0,1,4.7-4.7h48.31a4.7,4.7,0,0,1,4.7,4.7V354.3A4.7,4.7,0,0,1,263.62,359Zm-48.31-54.56a3.65,3.65,0,0,0-3.65,3.65V354.3a3.65,3.65,0,0,0,3.65,3.65h48.31a3.66,3.66,0,0,0,3.66-3.65V308.09a3.66,3.66,0,0,0-3.66-3.65Z" style="fill:#e0e0e0"></path><path d="M259.14,318a4.54,4.54,0,1,1,4.53-4.53A4.54,4.54,0,0,1,259.14,318Zm0-8a3.49,3.49,0,1,0,3.49,3.49A3.49,3.49,0,0,0,259.14,310Z" style="fill:#fafafa"></path><path d="M279.49,318A4.54,4.54,0,1,1,284,313.5,4.53,4.53,0,0,1,279.49,318Zm0-8A3.49,3.49,0,1,0,283,313.5,3.49,3.49,0,0,0,279.49,310Z" style="fill:#fafafa"></path><polygon points="212.14 382.4 207.63 382.4 207.63 369.56 216.88 369.56 212.14 382.4" style="fill:#f0f0f0"></polygon><path d="M395.38,320.28c1.87-13.62,20.24-17.5,43.56-18,22.19-.48,29.3-8.33,29.3-8.33s-.07,31.79-32.05,43.31C405.83,348.19,393.51,333.92,395.38,320.28Z" style="fill:#e6e6e6"></path><path d="M400.2,340.65c-.39-5.61-9.33-15.9-30.84-11.22-15.55,3.38-21.33-4.68-21.33-4.68s1.44,22.76,24.83,29.6C395.07,360.84,400.89,350.49,400.2,340.65Z" style="fill:#e6e6e6"></path><path d="M392.18,300.9c-1-5.52-11-14.81-31.85-7.87-15.11,5-21.71-2.38-21.71-2.38s3.85,22.47,27.83,26.78C389.22,321.53,393.91,310.62,392.18,300.9Z" style="fill:#e6e6e6"></path><path d="M401.28,347.91c1.77-2.73,9.18-5.43,18.75,3,6.93,6.07,12.12,3.61,12.12,3.61s-7.11,11.12-20.87,8C398.21,359.57,398.17,352.7,401.28,347.91Z" style="fill:#e6e6e6"></path><path d="M395.29,375.09a.83.83,0,0,1-.63-.29c-1.56-1.84-.28-6.26,1.48-12.37,2.27-7.83,5.09-17.59,2.7-24.67a100.23,100.23,0,0,0-4.63-10.94c-3.37-7.14-6.29-13.31-3.86-19.74a.83.83,0,0,1,1.07-.49.82.82,0,0,1,.48,1.07c-2.18,5.78.46,11.37,3.81,18.45a101.71,101.71,0,0,1,4.7,11.12c2.55,7.57-.34,17.6-2.67,25.66-1.38,4.76-2.8,9.67-1.81,10.84a.84.84,0,0,1-.1,1.17A.85.85,0,0,1,395.29,375.09Z" style="fill:#e6e6e6"></path><path d="M381.39,368h0a1.46,1.46,0,0,0,1.46,1.45h.41l1,8.19a5.43,5.43,0,0,0,5.39,4.79h13.06a5.43,5.43,0,0,0,5.39-4.79l1-8.19h.41a1.46,1.46,0,0,0,1.46-1.45h0a1.46,1.46,0,0,0-1.46-1.46h-26.6A1.46,1.46,0,0,0,381.39,368Z" style="fill:#f5f5f5"></path><rect x="180.24" y="300.17" width="23.76" height="82.23" style="fill:#e6e6e6"></rect><polygon points="199.49 382.4 204 382.4 204 369.56 194.75 369.56 199.49 382.4" style="fill:#f0f0f0"></polygon><rect x="60.81" y="300.17" width="23.76" height="82.23" style="fill:#e6e6e6"></rect><rect x="80.63" y="300.17" width="123.37" height="75.91" style="fill:#f0f0f0"></rect><path d="M196.32,359H148a4.71,4.71,0,0,1-4.71-4.7V308.09a4.71,4.71,0,0,1,4.71-4.7h48.31a4.71,4.71,0,0,1,4.7,4.7V354.3A4.71,4.71,0,0,1,196.32,359ZM148,304.44a3.66,3.66,0,0,0-3.66,3.65V354.3A3.66,3.66,0,0,0,148,358h48.31A3.66,3.66,0,0,0,200,354.3V308.09a3.66,3.66,0,0,0-3.65-3.65Z" style="fill:#e0e0e0"></path><path d="M136.62,359H88.31a4.7,4.7,0,0,1-4.7-4.7V308.09a4.7,4.7,0,0,1,4.7-4.7h48.31a4.71,4.71,0,0,1,4.7,4.7V354.3A4.71,4.71,0,0,1,136.62,359ZM88.31,304.44a3.66,3.66,0,0,0-3.66,3.65V354.3A3.66,3.66,0,0,0,88.31,358h48.31a3.66,3.66,0,0,0,3.66-3.65V308.09a3.66,3.66,0,0,0-3.66-3.65Z" style="fill:#e0e0e0"></path><path d="M132.14,318a4.54,4.54,0,1,1,4.53-4.53A4.53,4.53,0,0,1,132.14,318Zm0-8a3.49,3.49,0,1,0,3.48,3.49A3.49,3.49,0,0,0,132.14,310Z" style="fill:#fafafa"></path><path d="M152.49,318A4.54,4.54,0,1,1,157,313.5,4.53,4.53,0,0,1,152.49,318Zm0-8A3.49,3.49,0,1,0,156,313.5,3.49,3.49,0,0,0,152.49,310Z" style="fill:#fafafa"></path><polygon points="85.14 382.4 80.63 382.4 80.63 369.56 89.87 369.56 85.14 382.4" style="fill:#f0f0f0"></polygon></g><g id="freepik--Shadow--inject-4"><ellipse id="freepik--path--inject-4" cx="250" cy="416.24" rx="193.89" ry="11.32" style="fill:#f5f5f5"></ellipse></g><g id="freepik--Character--inject-4"><polygon points="259.32 400.81 266.53 398.44 262.96 381.12 255.75 383.49 259.32 400.81" style="fill:#ff8b7b"></polygon><polygon points="201.69 407.79 209.28 407.85 209.92 390.3 202.33 390.24 201.69 407.79" style="fill:#ff8b7b"></polygon><path d="M210.3,407l-9.25-.07a.66.66,0,0,0-.65.52l-1.55,6.73a1.12,1.12,0,0,0,1.1,1.36c3,0,5.15-.19,8.9-.16,2.3,0,7.69.87,13.56.42,3.11-.24,2.53-3.41,1.2-3.5-6.55-.48-10.22-3.12-12.08-4.82A1.88,1.88,0,0,0,210.3,407Z" style="fill:#263238"></path><path d="M266.57,397.34l-7.87,2.59a.66.66,0,0,0-.46.69l.69,6.88a1.11,1.11,0,0,0,1.46.94c2.82-1,6.87-2.5,10.43-3.67,4.18-1.38,6.08-2,11-3.65,3-1,2.79-4.23,1.47-4.1-6,.62-8.92,1.71-14.78.31A3.58,3.58,0,0,0,266.57,397.34Z" style="fill:#263238"></path><path d="M224.82,169.76l12.83,5.47c2.14.88,4.27,1.77,6.39,2.57,1.05.39,2.11.78,3.13,1.13.52.19,1,.34,1.52.5l.37.11.19.06.05,0-.07,0-.14,0a3.23,3.23,0,0,0-1.21.1c-.73.25-.82.48-.78.46a2.07,2.07,0,0,0,.49-.49,14.27,14.27,0,0,0,1.35-2.32,54.22,54.22,0,0,0,2.43-6.08c1.44-4.29,2.77-8.85,4-13.32l5.65.73a91.38,91.38,0,0,1-1.36,14.72,51.78,51.78,0,0,1-1.88,7.53A24,24,0,0,1,256,185a12.45,12.45,0,0,1-1.7,2.32,8.24,8.24,0,0,1-3.78,2.33,7.23,7.23,0,0,1-3,.2l-.36-.06-.24,0-.25-.06-.49-.1c-.65-.13-1.31-.27-1.93-.43-1.27-.29-2.47-.64-3.68-1-2.4-.71-4.73-1.49-7-2.33-4.62-1.66-9-3.51-13.5-5.6Z" style="fill:#ff8b7b"></path><path d="M214,178c2.34,6.86,18.65,12.71,18.65,12.71l6.13-17.92s-10.43-5.77-16.18-5.91C216.4,166.72,211.52,170.62,214,178Z" style="fill:#11B67A"></path><path d="M220.47,167c-1.75,3.73-3.56,8.32-5.25,13.15l.37.46a141.25,141.25,0,0,1,5.46-13.67C220.85,167,220.66,167,220.47,167Z" style="fill:#fff"></path><path d="M227.11,167.7a147,147,0,0,0-6.71,17l.43.28a144,144,0,0,1,6.76-17.09Z" style="fill:#fff"></path><path d="M232.47,169.7a154.73,154.73,0,0,0-6.9,17.9l.44.22a154.27,154.27,0,0,1,6.92-17.92Z" style="fill:#fff"></path><path d="M237.31,172a163.8,163.8,0,0,0-6.74,17.88l.45.18a164.6,164.6,0,0,1,6.73-17.84Z" style="fill:#fff"></path><path d="M225.72,179.58l-5.88,4.71a64.26,64.26,0,0,0,12.45,6.26C232.29,187.44,229.61,182.44,225.72,179.58Z" style="opacity:0.2"></path><path d="M256.34,163.36l7-3-2.87-7.74a12,12,0,0,0-4.71,3.76,4.3,4.3,0,0,0-.55,4.22Z" style="fill:#ff8b7b"></path><polygon points="267.23 156.22 266.08 148.56 260.47 152.61 263.34 160.35 267.23 156.22" style="fill:#ff8b7b"></polygon><polygon points="262.96 381.12 264.8 390.05 257.59 392.42 255.75 383.49 262.96 381.12" style="opacity:0.2"></polygon><polygon points="202.32 390.24 209.92 390.3 209.59 399.35 202 399.29 202.32 390.24" style="opacity:0.2"></polygon><path d="M182.45,172.06a2,2,0,0,0-1.24,2.55,175.18,175.18,0,0,1,6.06,22.61c1.17,5.81,2,11.37,2.69,16.42,1.56,11.84,2,20.92,2.59,24l40.13-6c2.16-43.45-10.06-64.8-10.06-64.8a79.62,79.62,0,0,0-9.75-.44c-.69,0-1.38,0-2.09.08A148.65,148.65,0,0,0,193.72,169c-1.07.21-2.15.45-3.2.7C187.28,170.52,184.29,171.45,182.45,172.06Z" style="fill:#11B67A"></path><path d="M181.8,176.4c8.53-3.66,29.15-6.88,42.12-6.86-.07-.17-.15-.34-.22-.5-13,0-33.48,3.24-42,6.88Z" style="fill:#fff"></path><path d="M226.43,176.08l-.17-.5c-12.53-.21-33.33,2.9-42.67,6.54,0,.16.09.32.14.48C193,179,214,175.82,226.43,176.08Z" style="fill:#fff"></path><path d="M228.37,182.63c0-.17-.09-.33-.13-.5-12.18-.37-33.13,2.68-43,6.31l.12.48C195.17,185.28,216.26,182.22,228.37,182.63Z" style="fill:#fff"></path><path d="M229.89,189.18c0-.17-.07-.33-.11-.5-12-.45-32.93,2.54-43,6.16,0,.16.07.32.1.48C196.88,191.7,218,188.69,229.89,189.18Z" style="fill:#fff"></path><path d="M231.05,195.71c0-.16-.05-.33-.07-.5-11.89-.46-32.77,2.51-42.93,6.1l.09.49C198.22,198.2,219.21,195.22,231.05,195.71Z" style="fill:#fff"></path><path d="M231.91,202.23l-.06-.5c-11.94-.41-32.64,2.55-42.71,6.12,0,.17.05.34.07.5C199.2,204.77,220,201.79,231.91,202.23Z" style="fill:#fff"></path><path d="M232.5,208.74c0-.17,0-.33,0-.5-12.1-.31-32.53,2.66-42.39,6.21l.06.51C199.88,211.39,220.42,208.41,232.5,208.74Z" style="fill:#fff"></path><path d="M232.83,215.26c0-.17,0-.33,0-.5-12.32-.18-32.44,2.81-42,6.35,0,.17,0,.34.05.5C200.3,218.07,220.51,215.06,232.83,215.26Z" style="fill:#fff"></path><path d="M232.93,221.78v-.5c-12.59,0-32.34,3-41.42,6.53,0,.17,0,.34.05.51C200.5,224.8,220.33,221.76,232.93,221.78Z" style="fill:#fff"></path><path d="M232.82,228.31c0-.16,0-.33,0-.49-12.86.18-32.14,3.23-40.69,6.72,0,.17,0,.35,0,.51C200.61,231.56,220,228.49,232.82,228.31Z" style="fill:#fff"></path><path d="M191.57,182.81c1,7.88-.71,14.32-3.64,17.88-.2-1.15-.43-2.3-.66-3.46-.88-4.36-1.93-8.87-3.21-13.4Z" style="opacity:0.2"></path><path d="M212.92,166.42h0c-.69,0-1.38,0-2.09.08A148.65,148.65,0,0,0,193.72,169c-.86.17-1.72.36-2.57.55l1.35,1c3.46,2.63,15,5.93,16.31,6.29l1.72.49.67-1.66C212.44,172.69,213.61,168.83,212.92,166.42Z" style="fill:#fff"></path><path d="M192.56,149.57c1.89,5.33,4.46,15.22,1.16,19.46,3.24,2.48,15.63,6,15.63,6s2.75-6.82,1.43-8.49c-6.34-.56-6.85-5.12-6.42-9.55Z" style="fill:#ff8b7b"></path><path d="M197.37,152.58l7,4.37a18,18,0,0,0-.07,3.11c-2.39,0-6-2.09-6.6-4.5A8.5,8.5,0,0,1,197.37,152.58Z" style="opacity:0.2"></path><path d="M202.45,132.14c.89-1.73,4.37-1.6,5.73,1.94s-1.21,8.19-1.21,8.19Z" style="fill:#263238"></path><path d="M188.1,143.57c3.11,6.85,4.58,11,9.5,13.28,7.4,3.38,14.85-3.14,13.85-10.79-.9-6.88-5.83-16.94-13.77-17.11A10.27,10.27,0,0,0,188.1,143.57Z" style="fill:#ff8b7b"></path><path d="M189.47,149.31c1.93-1.34,4.66-3.05,4.66-3.05a8.3,8.3,0,0,0-3.18-8.63c2.54-.48,21.59-4.85,14.53-10.81-9.3-7.85-19.37,5.25-24.25,3.27a3.6,3.6,0,0,0,2.5,3.63c-2.3.11-7.82,6.15-2.09,9S189.47,149.31,189.47,149.31Z" style="fill:#263238"></path><path d="M204.78,148.48h0a5.47,5.47,0,0,1-5.06-.47.18.18,0,0,1,0-.27.2.2,0,0,1,.27,0,5.21,5.21,0,0,0,4.7.42.19.19,0,0,1,.25.11A.21.21,0,0,1,204.78,148.48Z" style="fill:#263238"></path><path d="M186.65,150.38a7.12,7.12,0,0,0,5,2.2c2.51,0,3.13-2.36,1.89-4.4-1.11-1.83-3.75-4.05-6-3.11S185.06,148.69,186.65,150.38Z" style="fill:#ff8b7b"></path><path d="M267,387.5l-12.2,4s-13.61-44-19.48-70.44c-1.56-7-5.59-16.59-8.78-27-4-13.17-8.92-27.37-12.88-38.48-4.18-11.7-7.31-20-7.31-20l26.39-3.91s19.22,61.49,22.53,84.41C258.66,339.89,267,387.5,267,387.5Z" style="fill:#263238"></path><path d="M226.49,294c-4-13.17-8.92-27.37-12.88-38.48l2.29-6.14C223.09,256.71,226.74,280.77,226.49,294Z" style="opacity:0.2"></path><path d="M218.45,233.77s2.61,65.32,1.12,87.49c-1.63,24.29-6.49,76.36-6.49,76.36l-13.89-.1s-1.08-47.93.12-71.57c1.36-27-6.75-88.34-6.75-88.34Z" style="fill:#263238"></path><polygon points="214.03 397.94 197.68 397.81 197.71 392.92 216 392.74 214.03 397.94" style="fill:#11B67A"></polygon><polygon points="267.81 387.53 254.04 392.06 251.79 387.35 267.49 382.16 267.81 387.53" style="fill:#11B67A"></polygon><path d="M199.5,141.47c.22.57.7.92,1.07.77s.5-.72.29-1.29-.7-.92-1.08-.78S199.28,140.9,199.5,141.47Z" style="fill:#263238"></path><path d="M206,139c.22.57.7.92,1.08.78s.5-.72.28-1.29-.7-.92-1.07-.78S205.75,138.43,206,139Z" style="fill:#263238"></path><path d="M204,140.07a22.17,22.17,0,0,0,4.59,3.85c-.65,1.33-2.66,1.44-2.66,1.44Z" style="fill:#ff5652"></path><path d="M196.7,140.14a.36.36,0,0,0,.28-.25A2.83,2.83,0,0,1,198.7,138a.36.36,0,0,0,.24-.45.36.36,0,0,0-.45-.24,3.54,3.54,0,0,0-2.2,2.43.35.35,0,0,0,.24.44A.33.33,0,0,0,196.7,140.14Z" style="fill:#263238"></path><path d="M207.89,135.72a.31.31,0,0,0,.19-.11.34.34,0,0,0,0-.5,3.55,3.55,0,0,0-3.13-1,.35.35,0,0,0-.26.43.37.37,0,0,0,.43.27h0a2.82,2.82,0,0,1,2.47.79A.38.38,0,0,0,207.89,135.72Z" style="fill:#263238"></path><path d="M212.8,408.32a2.27,2.27,0,0,0,1.46-.38,1.05,1.05,0,0,0,.38-.94.56.56,0,0,0-.3-.51c-.84-.44-3.3,1-3.57,1.21a.18.18,0,0,0,0,.33A9.21,9.21,0,0,0,212.8,408.32Zm1.14-1.56a.53.53,0,0,1,.23,0,.24.24,0,0,1,.11.22.71.71,0,0,1-.25.65,3.68,3.68,0,0,1-2.69.11A7.13,7.13,0,0,1,213.94,406.76Z" style="fill:#11B67A"></path><path d="M210.86,408l.08,0c.79-.42,2.32-2.08,2.17-2.92a.59.59,0,0,0-.57-.48,1,1,0,0,0-.77.23c-.88.71-1.08,2.9-1.09,3a.19.19,0,0,0,.08.17A.17.17,0,0,0,210.86,408Zm1.55-3.07h.08c.24,0,.26.14.26.18.1.5-.88,1.75-1.67,2.34a4.38,4.38,0,0,1,.92-2.37A.61.61,0,0,1,212.41,405Z" style="fill:#11B67A"></path><path d="M267.6,398.1h0c1.23-.15,3.39-.55,3.95-1.5a1,1,0,0,0,.05-.94.56.56,0,0,0-.43-.36c-1-.19-3.45,2.22-3.72,2.5a.17.17,0,0,0,0,.2A.18.18,0,0,0,267.6,398.1Zm3.48-2.45h.05a.23.23,0,0,1,.17.15.68.68,0,0,1,0,.62c-.31.53-1.47,1-3.15,1.25C269.09,396.74,270.49,395.61,271.08,395.65Z" style="fill:#11B67A"></path><path d="M267.6,398.1a.17.17,0,0,0,.13,0c.74-.68,1.95-2.81,1.55-3.58-.1-.18-.31-.37-.79-.26a1.27,1.27,0,0,0-.85.6c-.67,1.05-.23,3.06-.21,3.14a.15.15,0,0,0,.12.13Zm1.17-3.56c.14,0,.18.08.19.11.24.46-.53,2.07-1.24,2.9a4.26,4.26,0,0,1,.22-2.54.92.92,0,0,1,.62-.44Z" style="fill:#11B67A"></path><path d="M191.16,183c-1.41,2.12-2.95,4.43-4.35,6.7s-2.82,4.59-4.14,6.9a90.87,90.87,0,0,0-6.75,14l-.16.44c0,.11-.14.4-.09.24s0-.2,0-.22,0,.18,0,.5a9.85,9.85,0,0,0,1.16,2.6,43.65,43.65,0,0,0,4.47,6c3.43,4,7.33,7.93,11.23,11.69l-3.38,4.58a92.17,92.17,0,0,1-14.06-10.15,46.44,46.44,0,0,1-6.31-6.73,20.21,20.21,0,0,1-2.7-4.78,12,12,0,0,1-.73-3.6,8.91,8.91,0,0,1,.21-2.3c.11-.5.13-.53.19-.75l.15-.56a63,63,0,0,1,3-8.56c1.13-2.74,2.43-5.35,3.77-7.93s2.78-5.08,4.29-7.53,3-4.83,4.83-7.27Z" style="fill:#ff8b7b"></path><path d="M182.35,172.1c-7.67,2.36-12.49,19.07-12.49,19.25L185,203s4.6-9,8.24-17.62C197.25,176,190.74,169.52,182.35,172.1Z" style="fill:#11B67A"></path><path d="M194.47,179.68c0-.21,0-.43,0-.64a93.18,93.18,0,0,0-10.86-7.25l-.73.17A90,90,0,0,1,194.47,179.68Z" style="fill:#fff"></path><path d="M177,176.31c4,1.76,9.78,5.7,15.74,10.4.06-.16.13-.31.2-.47-5.89-4.63-11.64-8.53-15.61-10.33Z" style="fill:#fff"></path><path d="M189.92,193l.21-.46c-6.06-4.86-12.08-9-16.33-11.09-.08.15-.15.3-.23.44C177.81,183.87,183.85,188.07,189.92,193Z" style="fill:#fff"></path><path d="M187,199.1l.22-.45a113.84,113.84,0,0,0-16-11.28c-.06.16-.12.31-.17.46A114.4,114.4,0,0,1,187,199.1Z" style="fill:#fff"></path><path d="M190.18,231.23l7.69-.41-3.56,9s-6.63-1.1-6.44-4.68Z" style="fill:#ff8b7b"></path><polygon points="203.08 234.41 199.79 241.72 194.31 239.83 197.87 230.82 203.08 234.41" style="fill:#ff8b7b"></polygon></g><g id="freepik--social-ideas--inject-4"><path d="M307.14,76.58a21.55,21.55,0,0,0-4.5-4l.56-.83a22.86,22.86,0,0,1,4.7,4.14Z" style="fill:#11B67A"></path><path d="M312.56,97.82l-1-.29a22,22,0,0,0-1.82-17.17l.87-.48A23,23,0,0,1,312.56,97.82Z" style="fill:#11B67A"></path><path d="M288.74,121.44a5.06,5.06,0,0,1-1.48-.22l-11-3.33a5,5,0,0,1-3.55-5.48l.18-1.36a28.53,28.53,0,0,0-1.56-13.25,20,20,0,0,1-.11-13.11,20.45,20.45,0,0,1,24.44-13.07,20.19,20.19,0,0,1,14,25.34h0a20.06,20.06,0,0,1-7,10.14,29.72,29.72,0,0,0-8.82,10.31l-.6,1.21A5,5,0,0,1,288.74,121.44Zm1.78-49.5A19.48,19.48,0,0,0,272.16,85a19,19,0,0,0,.1,12.46,29.55,29.55,0,0,1,1.61,13.71l-.18,1.35a4.05,4.05,0,0,0,2.85,4.4l11,3.33a4,4,0,0,0,4.81-2.08L293,117a31,31,0,0,1,9.11-10.66,19,19,0,0,0,6.66-9.63h0a19.19,19.19,0,0,0-13.34-24.08A18.47,18.47,0,0,0,290.52,71.94Z" style="fill:#11B67A"></path><path d="M288.87,125.83a1.73,1.73,0,0,0-1.16-2.16l-13.19-4a1.73,1.73,0,0,0-1,3.32l.33.11a1.56,1.56,0,0,0-.7.87l-.1.34a1.57,1.57,0,0,0,1,2l10.33,3.12a1.57,1.57,0,0,0,1.95-1l.1-.34a1.54,1.54,0,0,0-.1-1.12l.34.1A1.73,1.73,0,0,0,288.87,125.83Z" style="fill:#11B67A"></path><path d="M298.3,88.43a.6.6,0,0,0-.14-.73,10.46,10.46,0,0,0-3.82-2A9.47,9.47,0,0,0,282.57,92c-1,3.33.7,5.75,2.9,6.42a6.1,6.1,0,0,0,5.44-.86,3.18,3.18,0,0,0,.34,1.57,3.28,3.28,0,0,0,2,1.65c3.44,1,7.87-1,9.67-7,1.94-6.41-1.21-12.26-7.67-14.21-7.75-2.34-15.46,2-17.92,10.17-2.06,6.79,1.24,13.17,7.85,15.16a14,14,0,0,0,7.07.51.61.61,0,0,0,.49-.63l-.11-1.71a.56.56,0,0,0-.24-.44.58.58,0,0,0-.49-.11,11.06,11.06,0,0,1-5.46-.37c-5.14-1.55-7.5-6.24-5.86-11.66,2-6.53,7.67-10,13.54-8.2,5,1.5,7.1,5.62,5.55,10.74a7.67,7.67,0,0,1-3.31,4.7,2.28,2.28,0,0,1-1.75.27.56.56,0,0,1-.4-.34c-.13-.32-.18-1.14.88-3.13Zm-5.31.15a7.09,7.09,0,0,1,1.09.44l-1.71,3.31c-1,1.91-3.42,3.74-5.11,3.23s-1.37-1.87-1.13-2.67C287.09,89.72,290.23,87.75,293,88.58Z" style="fill:#11B67A"></path><path d="M298.3,88.43a.6.6,0,0,0-.14-.73,10.46,10.46,0,0,0-3.82-2A9.47,9.47,0,0,0,282.57,92c-1,3.33.7,5.75,2.9,6.42a6.1,6.1,0,0,0,5.44-.86,3.18,3.18,0,0,0,.34,1.57,3.28,3.28,0,0,0,2,1.65c3.44,1,7.87-1,9.67-7,1.94-6.41-1.21-12.26-7.67-14.21-7.75-2.34-15.46,2-17.92,10.17-2.06,6.79,1.24,13.17,7.85,15.16a14,14,0,0,0,7.07.51.61.61,0,0,0,.49-.63l-.11-1.71a.56.56,0,0,0-.24-.44.58.58,0,0,0-.49-.11,11.06,11.06,0,0,1-5.46-.37c-5.14-1.55-7.5-6.24-5.86-11.66,2-6.53,7.67-10,13.54-8.2,5,1.5,7.1,5.62,5.55,10.74a7.67,7.67,0,0,1-3.31,4.7,2.28,2.28,0,0,1-1.75.27.56.56,0,0,1-.4-.34c-.13-.32-.18-1.14.88-3.13Zm-5.31.15a7.09,7.09,0,0,1,1.09.44l-1.71,3.31c-1,1.91-3.42,3.74-5.11,3.23s-1.37-1.87-1.13-2.67C287.09,89.72,290.23,87.75,293,88.58Z" style="fill:#fff;opacity:0.7000000000000001"></path><path d="M312.27,158.71a5,5,0,0,1-3.85-1.79L301,148.15a5,5,0,0,1,0-6.52l.88-1a28.72,28.72,0,0,0,5.88-12,19.92,19.92,0,0,1,7-11.07,20.45,20.45,0,0,1,27.62,2.26A20.17,20.17,0,0,1,329,153.41a29.8,29.8,0,0,0-13,3.88l-1.17.7A5,5,0,0,1,312.27,158.71Zm15-44.52a19,19,0,0,0-18.59,14.64,29.48,29.48,0,0,1-6.09,12.39l-.88,1.05a4.06,4.06,0,0,0,0,5.24l7.45,8.77a4,4,0,0,0,5.17.85l1.17-.69a30.75,30.75,0,0,1,13.43-4,18.93,18.93,0,0,0,10.82-4.48h0a19.12,19.12,0,0,0-12.49-33.74Z" style="fill:#11B67A"></path><path d="M307.27,161.67a1.74,1.74,0,0,0,.2-2.45l-8.92-10.5A1.74,1.74,0,0,0,295.9,151l.23.27a1.53,1.53,0,0,0-1.07.36l-.27.23a1.56,1.56,0,0,0-.18,2.2l7,8.22a1.56,1.56,0,0,0,2.2.18l.27-.23a1.53,1.53,0,0,0,.52-1l.23.27A1.74,1.74,0,0,0,307.27,161.67Z" style="fill:#11B67A"></path><path d="M340,139.5l-5.06-5.95a1.1,1.1,0,0,0-1.55-.12l-.48.4-.06-.15c-2.41-5.56,1.38-11.27,1.38-11.27s-.78-1.66-2.28-1c-2.64,1.25-2.2,3.67-4.31,5.35l-1.86-2.46a9.21,9.21,0,0,0-2.14-2l-.79-.54a3.06,3.06,0,0,0-4.2.73L315.33,127a6.73,6.73,0,0,0,1,9c2.15,1.89,5.5,4.84,6.1,5.34h0l.72.71-.34.29a1.1,1.1,0,0,0-.12,1.55l5.05,6a1.11,1.11,0,0,0,1.55.13l10.52-8.94A1.11,1.11,0,0,0,340,139.5Z" style="fill:#11B67A"></path><path d="M233.8,120.7a5.05,5.05,0,0,1-4.64-3.08l-.53-1.26a28.66,28.66,0,0,0-8-10.65,19.91,19.91,0,0,1-6.72-11.25,20.45,20.45,0,0,1,14.48-23.63,20.19,20.19,0,0,1,24.92,14.76h0a20,20,0,0,1-.93,12.3A29.88,29.88,0,0,0,250,111.24l.09,1.36a5,5,0,0,1-3.86,5.26L235,120.56A5.46,5.46,0,0,1,233.8,120.7Zm-.13-49.58a19.2,19.2,0,0,0-18.82,23.13,18.94,18.94,0,0,0,6.38,10.7,29.59,29.59,0,0,1,8.32,11l.53,1.26a4,4,0,0,0,4.68,2.35L246,116.89a4,4,0,0,0,3.09-4.23l-.09-1.35a30.74,30.74,0,0,1,2.47-13.8,19.19,19.19,0,0,0-17.75-26.39Z" style="fill:#11B67A"></path><path d="M249.9,121a1.73,1.73,0,0,0-2.09-1.28L234.41,123a1.74,1.74,0,0,0,.81,3.38l.35-.08a1.52,1.52,0,0,0-.17,1.11l.08.35a1.58,1.58,0,0,0,1.89,1.15l10.49-2.53a1.56,1.56,0,0,0,1.15-1.88l-.08-.34a1.56,1.56,0,0,0-.65-.92l.34-.08A1.74,1.74,0,0,0,249.9,121Z" style="fill:#11B67A"></path><path d="M240.23,78.75,222.5,83a3.33,3.33,0,0,0-2.45,4l2.62,10.89a3.32,3.32,0,0,0,4,2.44l17.73-4.26a3.34,3.34,0,0,0,2.46-4L244.23,81.2A3.32,3.32,0,0,0,240.23,78.75Zm-8.51,16-2.19-9.11,9,2.65Z" style="fill:#11B67A"></path><path d="M240.23,78.75,222.5,83a3.33,3.33,0,0,0-2.45,4l2.62,10.89a3.32,3.32,0,0,0,4,2.44l17.73-4.26a3.34,3.34,0,0,0,2.46-4L244.23,81.2A3.32,3.32,0,0,0,240.23,78.75Zm-8.51,16-2.19-9.11,9,2.65Z" style="opacity:0.4"></path></g></svg>